<?xml version="1.0" encoding="UTF-8"?>
<svg id="Calque_1" xmlns="http://www.w3.org/2000/svg" width="215.9mm" height="279.4mm" version="1.1" viewBox="0 0 612 792">
  <!-- Generator: Adobe Illustrator 29.0.0, SVG Export Plug-In . SVG Version: 2.1.0 Build 186)  -->
  <path class="st0" d="M213.1,492.4c11.8,13,26.3,23.9,43.5,32.5,17.2,8.7,35.2,13,54.1,13s32.2-4.9,43.5-14.8c11.2-9.9,16.9-22.3,16.9-37.3s-4.3-24.2-13-32.2c-8.7-8.1-19.5-15.3-32.5-21.6-13-6.3-27.3-12.2-42.9-17.8-15.6-5.5-30.3-12.4-44.1-20.7-16.2-9.5-30-21.7-41.4-36.7-11.4-15-17.2-34.1-17.2-57.4s3.9-35,11.8-49.4c7.9-14.4,18.1-26.6,30.8-36.7,12.6-10.1,27.1-17.6,43.5-22.8,16.4-5.1,33.2-7.7,50.6-7.7s41.7,2.9,61.2,8.6c19.5,5.7,39.1,15.9,58.9,30.5l-41.4,59.2c-8.3-7.9-18.8-14.4-31.7-19.5-12.8-5.1-26.1-7.7-39.9-7.7s-15.1.9-22.8,2.7c-7.7,1.8-14.6,4.4-20.7,8-6.1,3.6-11,8.2-14.8,13.9-3.8,5.7-5.6,12.5-5.6,20.4s4.7,20.1,14.2,27.2c9.5,7.1,21.3,13.6,35.5,19.5,14.2,5.9,29.5,12.1,45.9,18.6,16.4,6.5,31.7,14.8,45.9,24.8,14.2,10.1,26,22.7,35.5,37.9,9.5,15.2,14.2,34.4,14.2,57.7s-3.8,35.4-11.5,50.6c-7.7,15.2-18,28.2-30.8,39-12.8,10.9-27.7,19.3-44.7,25.4-17,6.1-34.7,9.2-53.2,9.2-28,0-54.6-5.4-79.9-16.3-25.2-10.8-48.5-26.1-69.8-45.9l52.1-54.4Z"/>
</svg>